<?xml version="1.0" encoding="UTF-8"?>
<svg xmlns="http://www.w3.org/2000/svg" width="1200" height="900" viewBox="0 0 1200 900">
  <defs>
    <linearGradient id="bg" x1="0" y1="0" x2="1" y2="1">
      <stop offset="0%" stop-color="#111827"/>
      <stop offset="100%" stop-color="#1f2937"/>
    </linearGradient>
    <linearGradient id="panel" x1="0" y1="0" x2="1" y2="1">
      <stop offset="0%" stop-color="#1e293b"/>
      <stop offset="100%" stop-color="#0f172a"/>
    </linearGradient>
    <pattern id="finishGob" width="12" height="12" patternUnits="userSpaceOnUse">
      <rect width="12" height="12" fill="rgba(148,163,184,0.08)"/>
      <circle cx="6" cy="6" r="2" fill="rgba(148,163,184,0.18)"/>
    </pattern>
    <pattern id="finishCob" width="10" height="10" patternUnits="userSpaceOnUse">
      <rect width="10" height="10" fill="rgba(34,211,238,0.06)"/>
      <rect x="1" y="1" width="8" height="8" rx="2" fill="rgba(34,211,238,0.15)"/>
    </pattern>
    <pattern id="finishSmd" width="14" height="14" patternUnits="userSpaceOnUse">
      <rect width="14" height="14" fill="rgba(148,163,184,0.06)"/>
      <rect x="2" y="2" width="4" height="4" fill="rgba(56,189,248,0.2)"/>
      <rect x="8" y="8" width="4" height="4" fill="rgba(56,189,248,0.15)"/>
    </pattern>
    <filter id="shadow" x="-20%" y="-20%" width="140%" height="140%">
      <feDropShadow dx="0" dy="24" stdDeviation="20" flood-color="#000" flood-opacity="0.5"/>
    </filter>
  </defs>
  <rect width="1200" height="900" fill="url(#bg)"/>
  <rect x="40" y="40" width="1120" height="820" rx="28" fill="none" stroke="rgba(148,163,184,0.22)" stroke-width="2"/>
  <g filter="url(#shadow)" transform="skewX(-2)">
    <rect x="160" y="230" width="880" height="400" rx="28" fill="url(#panel)" stroke="rgba(148,163,184,0.45)" stroke-width="3"/>
    <rect x="170" y="240" width="860" height="380" rx="22" fill="url(#finishGob)" opacity="0.8"/>
    <circle cx="184.0" cy="254.0" r="2.2" fill="rgba(34,211,238,0.465)"/><circle cx="184.0" cy="283.0" r="2.2" fill="rgba(34,211,238,0.530)"/><circle cx="184.0" cy="312.0" r="2.2" fill="rgba(34,211,238,0.577)"/><circle cx="184.0" cy="341.0" r="2.2" fill="rgba(34,211,238,0.599)"/><circle cx="184.0" cy="370.0" r="2.2" fill="rgba(34,211,238,0.593)"/><circle cx="184.0" cy="399.0" r="2.2" fill="rgba(34,211,238,0.560)"/><circle cx="184.0" cy="428.0" r="2.2" fill="rgba(34,211,238,0.504)"/><circle cx="184.0" cy="457.0" r="2.2" fill="rgba(34,211,238,0.434)"/><circle cx="184.0" cy="486.0" r="2.2" fill="rgba(34,211,238,0.359)"/><circle cx="184.0" cy="515.0" r="2.2" fill="rgba(34,211,238,0.290)"/><circle cx="184.0" cy="544.0" r="2.2" fill="rgba(34,211,238,0.236)"/><circle cx="184.0" cy="573.0" r="2.2" fill="rgba(34,211,238,0.205)"/><circle cx="184.0" cy="602.0" r="2.2" fill="rgba(34,211,238,0.202)"/><circle cx="213.0" cy="254.0" r="2.2" fill="rgba(34,211,238,0.551)"/><circle cx="213.0" cy="283.0" r="2.2" fill="rgba(34,211,238,0.588)"/><circle cx="213.0" cy="312.0" r="2.2" fill="rgba(34,211,238,0.600)"/><circle cx="213.0" cy="341.0" r="2.2" fill="rgba(34,211,238,0.583)"/><circle cx="213.0" cy="370.0" r="2.2" fill="rgba(34,211,238,0.541)"/><circle cx="213.0" cy="399.0" r="2.2" fill="rgba(34,211,238,0.479)"/><circle cx="213.0" cy="428.0" r="2.2" fill="rgba(34,211,238,0.405)"/><circle cx="213.0" cy="457.0" r="2.2" fill="rgba(34,211,238,0.331)"/><circle cx="213.0" cy="486.0" r="2.2" fill="rgba(34,211,238,0.267)"/><circle cx="213.0" cy="515.0" r="2.2" fill="rgba(34,211,238,0.221)"/><circle cx="213.0" cy="544.0" r="2.2" fill="rgba(34,211,238,0.201)"/><circle cx="213.0" cy="573.0" r="2.2" fill="rgba(34,211,238,0.208)"/><circle cx="213.0" cy="602.0" r="2.2" fill="rgba(34,211,238,0.243)"/><circle cx="242.0" cy="254.0" r="2.2" fill="rgba(34,211,238,0.596)"/><circle cx="242.0" cy="283.0" r="2.2" fill="rgba(34,211,238,0.597)"/><circle cx="242.0" cy="312.0" r="2.2" fill="rgba(34,211,238,0.570)"/><circle cx="242.0" cy="341.0" r="2.2" fill="rgba(34,211,238,0.519)"/><circle cx="242.0" cy="370.0" r="2.2" fill="rgba(34,211,238,0.451)"/><circle cx="242.0" cy="399.0" r="2.2" fill="rgba(34,211,238,0.376)"/><circle cx="242.0" cy="428.0" r="2.2" fill="rgba(34,211,238,0.305)"/><circle cx="242.0" cy="457.0" r="2.2" fill="rgba(34,211,238,0.247)"/><circle cx="242.0" cy="486.0" r="2.2" fill="rgba(34,211,238,0.210)"/><circle cx="242.0" cy="515.0" r="2.2" fill="rgba(34,211,238,0.200)"/><circle cx="242.0" cy="544.0" r="2.2" fill="rgba(34,211,238,0.218)"/><circle cx="242.0" cy="573.0" r="2.2" fill="rgba(34,211,238,0.262)"/><circle cx="242.0" cy="602.0" r="2.2" fill="rgba(34,211,238,0.325)"/><circle cx="271.0" cy="254.0" r="2.2" fill="rgba(34,211,238,0.589)"/><circle cx="271.0" cy="283.0" r="2.2" fill="rgba(34,211,238,0.553)"/><circle cx="271.0" cy="312.0" r="2.2" fill="rgba(34,211,238,0.494)"/><circle cx="271.0" cy="341.0" r="2.2" fill="rgba(34,211,238,0.423)"/><circle cx="271.0" cy="370.0" r="2.2" fill="rgba(34,211,238,0.348)"/><circle cx="271.0" cy="399.0" r="2.2" fill="rgba(34,211,238,0.281)"/><circle cx="271.0" cy="428.0" r="2.2" fill="rgba(34,211,238,0.230)"/><circle cx="271.0" cy="457.0" r="2.2" fill="rgba(34,211,238,0.203)"/><circle cx="271.0" cy="486.0" r="2.2" fill="rgba(34,211,238,0.204)"/><circle cx="271.0" cy="515.0" r="2.2" fill="rgba(34,211,238,0.232)"/><circle cx="271.0" cy="544.0" r="2.2" fill="rgba(34,211,238,0.284)"/><circle cx="271.0" cy="573.0" r="2.2" fill="rgba(34,211,238,0.353)"/><circle cx="271.0" cy="602.0" r="2.2" fill="rgba(34,211,238,0.427)"/><circle cx="300.0" cy="254.0" r="2.2" fill="rgba(34,211,238,0.532)"/><circle cx="300.0" cy="283.0" r="2.2" fill="rgba(34,211,238,0.468)"/><circle cx="300.0" cy="312.0" r="2.2" fill="rgba(34,211,238,0.394)"/><circle cx="300.0" cy="341.0" r="2.2" fill="rgba(34,211,238,0.321)"/><circle cx="300.0" cy="370.0" r="2.2" fill="rgba(34,211,238,0.259)"/><circle cx="300.0" cy="399.0" r="2.2" fill="rgba(34,211,238,0.216)"/><circle cx="300.0" cy="428.0" r="2.2" fill="rgba(34,211,238,0.200)"/><circle cx="300.0" cy="457.0" r="2.2" fill="rgba(34,211,238,0.212)"/><circle cx="300.0" cy="486.0" r="2.2" fill="rgba(34,211,238,0.250)"/><circle cx="300.0" cy="515.0" r="2.2" fill="rgba(34,211,238,0.309)"/><circle cx="300.0" cy="544.0" r="2.2" fill="rgba(34,211,238,0.381)"/><circle cx="300.0" cy="573.0" r="2.2" fill="rgba(34,211,238,0.456)"/><circle cx="300.0" cy="602.0" r="2.2" fill="rgba(34,211,238,0.523)"/><circle cx="329.0" cy="254.0" r="2.2" fill="rgba(34,211,238,0.440)"/><circle cx="329.0" cy="283.0" r="2.2" fill="rgba(34,211,238,0.365)"/><circle cx="329.0" cy="312.0" r="2.2" fill="rgba(34,211,238,0.295)"/><circle cx="329.0" cy="341.0" r="2.2" fill="rgba(34,211,238,0.240)"/><circle cx="329.0" cy="370.0" r="2.2" fill="rgba(34,211,238,0.207)"/><circle cx="329.0" cy="399.0" r="2.2" fill="rgba(34,211,238,0.201)"/><circle cx="329.0" cy="428.0" r="2.2" fill="rgba(34,211,238,0.224)"/><circle cx="329.0" cy="457.0" r="2.2" fill="rgba(34,211,238,0.271)"/><circle cx="329.0" cy="486.0" r="2.2" fill="rgba(34,211,238,0.336)"/><circle cx="329.0" cy="515.0" r="2.2" fill="rgba(34,211,238,0.410)"/><circle cx="329.0" cy="544.0" r="2.2" fill="rgba(34,211,238,0.483)"/><circle cx="329.0" cy="573.0" r="2.2" fill="rgba(34,211,238,0.544)"/><circle cx="329.0" cy="602.0" r="2.2" fill="rgba(34,211,238,0.585)"/><circle cx="358.0" cy="254.0" r="2.2" fill="rgba(34,211,238,0.337)"/><circle cx="358.0" cy="283.0" r="2.2" fill="rgba(34,211,238,0.271)"/><circle cx="358.0" cy="312.0" r="2.2" fill="rgba(34,211,238,0.224)"/><circle cx="358.0" cy="341.0" r="2.2" fill="rgba(34,211,238,0.201)"/><circle cx="358.0" cy="370.0" r="2.2" fill="rgba(34,211,238,0.207)"/><circle cx="358.0" cy="399.0" r="2.2" fill="rgba(34,211,238,0.239)"/><circle cx="358.0" cy="428.0" r="2.2" fill="rgba(34,211,238,0.294)"/><circle cx="358.0" cy="457.0" r="2.2" fill="rgba(34,211,238,0.364)"/><circle cx="358.0" cy="486.0" r="2.2" fill="rgba(34,211,238,0.439)"/><circle cx="358.0" cy="515.0" r="2.2" fill="rgba(34,211,238,0.508)"/><circle cx="358.0" cy="544.0" r="2.2" fill="rgba(34,211,238,0.563)"/><circle cx="358.0" cy="573.0" r="2.2" fill="rgba(34,211,238,0.594)"/><circle cx="358.0" cy="602.0" r="2.2" fill="rgba(34,211,238,0.598)"/><circle cx="387.0" cy="254.0" r="2.2" fill="rgba(34,211,238,0.251)"/><circle cx="387.0" cy="283.0" r="2.2" fill="rgba(34,211,238,0.212)"/><circle cx="387.0" cy="312.0" r="2.2" fill="rgba(34,211,238,0.200)"/><circle cx="387.0" cy="341.0" r="2.2" fill="rgba(34,211,238,0.216)"/><circle cx="387.0" cy="370.0" r="2.2" fill="rgba(34,211,238,0.258)"/><circle cx="387.0" cy="399.0" r="2.2" fill="rgba(34,211,238,0.320)"/><circle cx="387.0" cy="428.0" r="2.2" fill="rgba(34,211,238,0.393)"/><circle cx="387.0" cy="457.0" r="2.2" fill="rgba(34,211,238,0.467)"/><circle cx="387.0" cy="486.0" r="2.2" fill="rgba(34,211,238,0.532)"/><circle cx="387.0" cy="515.0" r="2.2" fill="rgba(34,211,238,0.578)"/><circle cx="387.0" cy="544.0" r="2.2" fill="rgba(34,211,238,0.599)"/><circle cx="387.0" cy="573.0" r="2.2" fill="rgba(34,211,238,0.592)"/><circle cx="387.0" cy="602.0" r="2.2" fill="rgba(34,211,238,0.559)"/><circle cx="416.0" cy="254.0" r="2.2" fill="rgba(34,211,238,0.204)"/><circle cx="416.0" cy="283.0" r="2.2" fill="rgba(34,211,238,0.203)"/><circle cx="416.0" cy="312.0" r="2.2" fill="rgba(34,211,238,0.229)"/><circle cx="416.0" cy="341.0" r="2.2" fill="rgba(34,211,238,0.280)"/><circle cx="416.0" cy="370.0" r="2.2" fill="rgba(34,211,238,0.347)"/><circle cx="416.0" cy="399.0" r="2.2" fill="rgba(34,211,238,0.422)"/><circle cx="416.0" cy="428.0" r="2.2" fill="rgba(34,211,238,0.493)"/><circle cx="416.0" cy="457.0" r="2.2" fill="rgba(34,211,238,0.552)"/><circle cx="416.0" cy="486.0" r="2.2" fill="rgba(34,211,238,0.589)"/><circle cx="416.0" cy="515.0" r="2.2" fill="rgba(34,211,238,0.600)"/><circle cx="416.0" cy="544.0" r="2.2" fill="rgba(34,211,238,0.582)"/><circle cx="416.0" cy="573.0" r="2.2" fill="rgba(34,211,238,0.539)"/><circle cx="416.0" cy="602.0" r="2.2" fill="rgba(34,211,238,0.477)"/><circle cx="445.0" cy="254.0" r="2.2" fill="rgba(34,211,238,0.210)"/><circle cx="445.0" cy="283.0" r="2.2" fill="rgba(34,211,238,0.246)"/><circle cx="445.0" cy="312.0" r="2.2" fill="rgba(34,211,238,0.304)"/><circle cx="445.0" cy="341.0" r="2.2" fill="rgba(34,211,238,0.375)"/><circle cx="445.0" cy="370.0" r="2.2" fill="rgba(34,211,238,0.450)"/><circle cx="445.0" cy="399.0" r="2.2" fill="rgba(34,211,238,0.518)"/><circle cx="445.0" cy="428.0" r="2.2" fill="rgba(34,211,238,0.569)"/><circle cx="445.0" cy="457.0" r="2.2" fill="rgba(34,211,238,0.597)"/><circle cx="445.0" cy="486.0" r="2.2" fill="rgba(34,211,238,0.596)"/><circle cx="445.0" cy="515.0" r="2.2" fill="rgba(34,211,238,0.569)"/><circle cx="445.0" cy="544.0" r="2.2" fill="rgba(34,211,238,0.517)"/><circle cx="445.0" cy="573.0" r="2.2" fill="rgba(34,211,238,0.449)"/><circle cx="445.0" cy="602.0" r="2.2" fill="rgba(34,211,238,0.374)"/><circle cx="474.0" cy="254.0" r="2.2" fill="rgba(34,211,238,0.266)"/><circle cx="474.0" cy="283.0" r="2.2" fill="rgba(34,211,238,0.330)"/><circle cx="474.0" cy="312.0" r="2.2" fill="rgba(34,211,238,0.404)"/><circle cx="474.0" cy="341.0" r="2.2" fill="rgba(34,211,238,0.478)"/><circle cx="474.0" cy="370.0" r="2.2" fill="rgba(34,211,238,0.540)"/><circle cx="474.0" cy="399.0" r="2.2" fill="rgba(34,211,238,0.583)"/><circle cx="474.0" cy="428.0" r="2.2" fill="rgba(34,211,238,0.600)"/><circle cx="474.0" cy="457.0" r="2.2" fill="rgba(34,211,238,0.589)"/><circle cx="474.0" cy="486.0" r="2.2" fill="rgba(34,211,238,0.551)"/><circle cx="474.0" cy="515.0" r="2.2" fill="rgba(34,211,238,0.493)"/><circle cx="474.0" cy="544.0" r="2.2" fill="rgba(34,211,238,0.421)"/><circle cx="474.0" cy="573.0" r="2.2" fill="rgba(34,211,238,0.346)"/><circle cx="474.0" cy="602.0" r="2.2" fill="rgba(34,211,238,0.279)"/><circle cx="503.0" cy="254.0" r="2.2" fill="rgba(34,211,238,0.358)"/><circle cx="503.0" cy="283.0" r="2.2" fill="rgba(34,211,238,0.433)"/><circle cx="503.0" cy="312.0" r="2.2" fill="rgba(34,211,238,0.503)"/><circle cx="503.0" cy="341.0" r="2.2" fill="rgba(34,211,238,0.559)"/><circle cx="503.0" cy="370.0" r="2.2" fill="rgba(34,211,238,0.593)"/><circle cx="503.0" cy="399.0" r="2.2" fill="rgba(34,211,238,0.599)"/><circle cx="503.0" cy="428.0" r="2.2" fill="rgba(34,211,238,0.577)"/><circle cx="503.0" cy="457.0" r="2.2" fill="rgba(34,211,238,0.531)"/><circle cx="503.0" cy="486.0" r="2.2" fill="rgba(34,211,238,0.466)"/><circle cx="503.0" cy="515.0" r="2.2" fill="rgba(34,211,238,0.392)"/><circle cx="503.0" cy="544.0" r="2.2" fill="rgba(34,211,238,0.319)"/><circle cx="503.0" cy="573.0" r="2.2" fill="rgba(34,211,238,0.257)"/><circle cx="503.0" cy="602.0" r="2.2" fill="rgba(34,211,238,0.216)"/><circle cx="532.0" cy="254.0" r="2.2" fill="rgba(34,211,238,0.461)"/><circle cx="532.0" cy="283.0" r="2.2" fill="rgba(34,211,238,0.527)"/><circle cx="532.0" cy="312.0" r="2.2" fill="rgba(34,211,238,0.575)"/><circle cx="532.0" cy="341.0" r="2.2" fill="rgba(34,211,238,0.598)"/><circle cx="532.0" cy="370.0" r="2.2" fill="rgba(34,211,238,0.594)"/><circle cx="532.0" cy="399.0" r="2.2" fill="rgba(34,211,238,0.562)"/><circle cx="532.0" cy="428.0" r="2.2" fill="rgba(34,211,238,0.508)"/><circle cx="532.0" cy="457.0" r="2.2" fill="rgba(34,211,238,0.438)"/><circle cx="532.0" cy="486.0" r="2.2" fill="rgba(34,211,238,0.363)"/><circle cx="532.0" cy="515.0" r="2.2" fill="rgba(34,211,238,0.293)"/><circle cx="532.0" cy="544.0" r="2.2" fill="rgba(34,211,238,0.238)"/><circle cx="532.0" cy="573.0" r="2.2" fill="rgba(34,211,238,0.206)"/><circle cx="532.0" cy="602.0" r="2.2" fill="rgba(34,211,238,0.202)"/><circle cx="561.0" cy="254.0" r="2.2" fill="rgba(34,211,238,0.548)"/><circle cx="561.0" cy="283.0" r="2.2" fill="rgba(34,211,238,0.587)"/><circle cx="561.0" cy="312.0" r="2.2" fill="rgba(34,211,238,0.600)"/><circle cx="561.0" cy="341.0" r="2.2" fill="rgba(34,211,238,0.585)"/><circle cx="561.0" cy="370.0" r="2.2" fill="rgba(34,211,238,0.543)"/><circle cx="561.0" cy="399.0" r="2.2" fill="rgba(34,211,238,0.482)"/><circle cx="561.0" cy="428.0" r="2.2" fill="rgba(34,211,238,0.409)"/><circle cx="561.0" cy="457.0" r="2.2" fill="rgba(34,211,238,0.335)"/><circle cx="561.0" cy="486.0" r="2.2" fill="rgba(34,211,238,0.270)"/><circle cx="561.0" cy="515.0" r="2.2" fill="rgba(34,211,238,0.223)"/><circle cx="561.0" cy="544.0" r="2.2" fill="rgba(34,211,238,0.201)"/><circle cx="561.0" cy="573.0" r="2.2" fill="rgba(34,211,238,0.207)"/><circle cx="561.0" cy="602.0" r="2.2" fill="rgba(34,211,238,0.240)"/><circle cx="590.0" cy="254.0" r="2.2" fill="rgba(34,211,238,0.595)"/><circle cx="590.0" cy="283.0" r="2.2" fill="rgba(34,211,238,0.597)"/><circle cx="590.0" cy="312.0" r="2.2" fill="rgba(34,211,238,0.572)"/><circle cx="590.0" cy="341.0" r="2.2" fill="rgba(34,211,238,0.522)"/><circle cx="590.0" cy="370.0" r="2.2" fill="rgba(34,211,238,0.455)"/><circle cx="590.0" cy="399.0" r="2.2" fill="rgba(34,211,238,0.380)"/><circle cx="590.0" cy="428.0" r="2.2" fill="rgba(34,211,238,0.308)"/><circle cx="590.0" cy="457.0" r="2.2" fill="rgba(34,211,238,0.249)"/><circle cx="590.0" cy="486.0" r="2.2" fill="rgba(34,211,238,0.211)"/><circle cx="590.0" cy="515.0" r="2.2" fill="rgba(34,211,238,0.200)"/><circle cx="590.0" cy="544.0" r="2.2" fill="rgba(34,211,238,0.217)"/><circle cx="590.0" cy="573.0" r="2.2" fill="rgba(34,211,238,0.259)"/><circle cx="590.0" cy="602.0" r="2.2" fill="rgba(34,211,238,0.321)"/><circle cx="619.0" cy="254.0" r="2.2" fill="rgba(34,211,238,0.591)"/><circle cx="619.0" cy="283.0" r="2.2" fill="rgba(34,211,238,0.555)"/><circle cx="619.0" cy="312.0" r="2.2" fill="rgba(34,211,238,0.498)"/><circle cx="619.0" cy="341.0" r="2.2" fill="rgba(34,211,238,0.427)"/><circle cx="619.0" cy="370.0" r="2.2" fill="rgba(34,211,238,0.352)"/><circle cx="619.0" cy="399.0" r="2.2" fill="rgba(34,211,238,0.284)"/><circle cx="619.0" cy="428.0" r="2.2" fill="rgba(34,211,238,0.232)"/><circle cx="619.0" cy="457.0" r="2.2" fill="rgba(34,211,238,0.204)"/><circle cx="619.0" cy="486.0" r="2.2" fill="rgba(34,211,238,0.203)"/><circle cx="619.0" cy="515.0" r="2.2" fill="rgba(34,211,238,0.230)"/><circle cx="619.0" cy="544.0" r="2.2" fill="rgba(34,211,238,0.281)"/><circle cx="619.0" cy="573.0" r="2.2" fill="rgba(34,211,238,0.349)"/><circle cx="619.0" cy="602.0" r="2.2" fill="rgba(34,211,238,0.424)"/><circle cx="648.0" cy="254.0" r="2.2" fill="rgba(34,211,238,0.535)"/><circle cx="648.0" cy="283.0" r="2.2" fill="rgba(34,211,238,0.471)"/><circle cx="648.0" cy="312.0" r="2.2" fill="rgba(34,211,238,0.398)"/><circle cx="648.0" cy="341.0" r="2.2" fill="rgba(34,211,238,0.324)"/><circle cx="648.0" cy="370.0" r="2.2" fill="rgba(34,211,238,0.261)"/><circle cx="648.0" cy="399.0" r="2.2" fill="rgba(34,211,238,0.218)"/><circle cx="648.0" cy="428.0" r="2.2" fill="rgba(34,211,238,0.200)"/><circle cx="648.0" cy="457.0" r="2.2" fill="rgba(34,211,238,0.211)"/><circle cx="648.0" cy="486.0" r="2.2" fill="rgba(34,211,238,0.247)"/><circle cx="648.0" cy="515.0" r="2.2" fill="rgba(34,211,238,0.306)"/><circle cx="648.0" cy="544.0" r="2.2" fill="rgba(34,211,238,0.377)"/><circle cx="648.0" cy="573.0" r="2.2" fill="rgba(34,211,238,0.452)"/><circle cx="648.0" cy="602.0" r="2.2" fill="rgba(34,211,238,0.520)"/><circle cx="677.0" cy="254.0" r="2.2" fill="rgba(34,211,238,0.444)"/><circle cx="677.0" cy="283.0" r="2.2" fill="rgba(34,211,238,0.369)"/><circle cx="677.0" cy="312.0" r="2.2" fill="rgba(34,211,238,0.298)"/><circle cx="677.0" cy="341.0" r="2.2" fill="rgba(34,211,238,0.242)"/><circle cx="677.0" cy="370.0" r="2.2" fill="rgba(34,211,238,0.208)"/><circle cx="677.0" cy="399.0" r="2.2" fill="rgba(34,211,238,0.201)"/><circle cx="677.0" cy="428.0" r="2.2" fill="rgba(34,211,238,0.222)"/><circle cx="677.0" cy="457.0" r="2.2" fill="rgba(34,211,238,0.268)"/><circle cx="677.0" cy="486.0" r="2.2" fill="rgba(34,211,238,0.332)"/><circle cx="677.0" cy="515.0" r="2.2" fill="rgba(34,211,238,0.406)"/><circle cx="677.0" cy="544.0" r="2.2" fill="rgba(34,211,238,0.479)"/><circle cx="677.0" cy="573.0" r="2.2" fill="rgba(34,211,238,0.541)"/><circle cx="677.0" cy="602.0" r="2.2" fill="rgba(34,211,238,0.584)"/><circle cx="706.0" cy="254.0" r="2.2" fill="rgba(34,211,238,0.341)"/><circle cx="706.0" cy="283.0" r="2.2" fill="rgba(34,211,238,0.274)"/><circle cx="706.0" cy="312.0" r="2.2" fill="rgba(34,211,238,0.226)"/><circle cx="706.0" cy="341.0" r="2.2" fill="rgba(34,211,238,0.202)"/><circle cx="706.0" cy="370.0" r="2.2" fill="rgba(34,211,238,0.206)"/><circle cx="706.0" cy="399.0" r="2.2" fill="rgba(34,211,238,0.237)"/><circle cx="706.0" cy="428.0" r="2.2" fill="rgba(34,211,238,0.291)"/><circle cx="706.0" cy="457.0" r="2.2" fill="rgba(34,211,238,0.360)"/><circle cx="706.0" cy="486.0" r="2.2" fill="rgba(34,211,238,0.435)"/><circle cx="706.0" cy="515.0" r="2.2" fill="rgba(34,211,238,0.505)"/><circle cx="706.0" cy="544.0" r="2.2" fill="rgba(34,211,238,0.560)"/><circle cx="706.0" cy="573.0" r="2.2" fill="rgba(34,211,238,0.593)"/><circle cx="706.0" cy="602.0" r="2.2" fill="rgba(34,211,238,0.599)"/><circle cx="735.0" cy="254.0" r="2.2" fill="rgba(34,211,238,0.253)"/><circle cx="735.0" cy="283.0" r="2.2" fill="rgba(34,211,238,0.214)"/><circle cx="735.0" cy="312.0" r="2.2" fill="rgba(34,211,238,0.200)"/><circle cx="735.0" cy="341.0" r="2.2" fill="rgba(34,211,238,0.215)"/><circle cx="735.0" cy="370.0" r="2.2" fill="rgba(34,211,238,0.255)"/><circle cx="735.0" cy="399.0" r="2.2" fill="rgba(34,211,238,0.316)"/><circle cx="735.0" cy="428.0" r="2.2" fill="rgba(34,211,238,0.389)"/><circle cx="735.0" cy="457.0" r="2.2" fill="rgba(34,211,238,0.463)"/><circle cx="735.0" cy="486.0" r="2.2" fill="rgba(34,211,238,0.529)"/><circle cx="735.0" cy="515.0" r="2.2" fill="rgba(34,211,238,0.576)"/><circle cx="735.0" cy="544.0" r="2.2" fill="rgba(34,211,238,0.599)"/><circle cx="735.0" cy="573.0" r="2.2" fill="rgba(34,211,238,0.593)"/><circle cx="735.0" cy="602.0" r="2.2" fill="rgba(34,211,238,0.561)"/><circle cx="764.0" cy="254.0" r="2.2" fill="rgba(34,211,238,0.205)"/><circle cx="764.0" cy="283.0" r="2.2" fill="rgba(34,211,238,0.202)"/><circle cx="764.0" cy="312.0" r="2.2" fill="rgba(34,211,238,0.227)"/><circle cx="764.0" cy="341.0" r="2.2" fill="rgba(34,211,238,0.277)"/><circle cx="764.0" cy="370.0" r="2.2" fill="rgba(34,211,238,0.343)"/><circle cx="764.0" cy="399.0" r="2.2" fill="rgba(34,211,238,0.418)"/><circle cx="764.0" cy="428.0" r="2.2" fill="rgba(34,211,238,0.490)"/><circle cx="764.0" cy="457.0" r="2.2" fill="rgba(34,211,238,0.549)"/><circle cx="764.0" cy="486.0" r="2.2" fill="rgba(34,211,238,0.588)"/><circle cx="764.0" cy="515.0" r="2.2" fill="rgba(34,211,238,0.600)"/><circle cx="764.0" cy="544.0" r="2.2" fill="rgba(34,211,238,0.584)"/><circle cx="764.0" cy="573.0" r="2.2" fill="rgba(34,211,238,0.542)"/><circle cx="764.0" cy="602.0" r="2.2" fill="rgba(34,211,238,0.480)"/><circle cx="793.0" cy="254.0" r="2.2" fill="rgba(34,211,238,0.209)"/><circle cx="793.0" cy="283.0" r="2.2" fill="rgba(34,211,238,0.244)"/><circle cx="793.0" cy="312.0" r="2.2" fill="rgba(34,211,238,0.301)"/><circle cx="793.0" cy="341.0" r="2.2" fill="rgba(34,211,238,0.372)"/><circle cx="793.0" cy="370.0" r="2.2" fill="rgba(34,211,238,0.446)"/><circle cx="793.0" cy="399.0" r="2.2" fill="rgba(34,211,238,0.515)"/><circle cx="793.0" cy="428.0" r="2.2" fill="rgba(34,211,238,0.567)"/><circle cx="793.0" cy="457.0" r="2.2" fill="rgba(34,211,238,0.596)"/><circle cx="793.0" cy="486.0" r="2.2" fill="rgba(34,211,238,0.597)"/><circle cx="793.0" cy="515.0" r="2.2" fill="rgba(34,211,238,0.571)"/><circle cx="793.0" cy="544.0" r="2.2" fill="rgba(34,211,238,0.520)"/><circle cx="793.0" cy="573.0" r="2.2" fill="rgba(34,211,238,0.453)"/><circle cx="793.0" cy="602.0" r="2.2" fill="rgba(34,211,238,0.378)"/><circle cx="822.0" cy="254.0" r="2.2" fill="rgba(34,211,238,0.263)"/><circle cx="822.0" cy="283.0" r="2.2" fill="rgba(34,211,238,0.327)"/><circle cx="822.0" cy="312.0" r="2.2" fill="rgba(34,211,238,0.400)"/><circle cx="822.0" cy="341.0" r="2.2" fill="rgba(34,211,238,0.474)"/><circle cx="822.0" cy="370.0" r="2.2" fill="rgba(34,211,238,0.537)"/><circle cx="822.0" cy="399.0" r="2.2" fill="rgba(34,211,238,0.581)"/><circle cx="822.0" cy="428.0" r="2.2" fill="rgba(34,211,238,0.600)"/><circle cx="822.0" cy="457.0" r="2.2" fill="rgba(34,211,238,0.590)"/><circle cx="822.0" cy="486.0" r="2.2" fill="rgba(34,211,238,0.554)"/><circle cx="822.0" cy="515.0" r="2.2" fill="rgba(34,211,238,0.496)"/><circle cx="822.0" cy="544.0" r="2.2" fill="rgba(34,211,238,0.425)"/><circle cx="822.0" cy="573.0" r="2.2" fill="rgba(34,211,238,0.350)"/><circle cx="822.0" cy="602.0" r="2.2" fill="rgba(34,211,238,0.282)"/><circle cx="851.0" cy="254.0" r="2.2" fill="rgba(34,211,238,0.354)"/><circle cx="851.0" cy="283.0" r="2.2" fill="rgba(34,211,238,0.429)"/><circle cx="851.0" cy="312.0" r="2.2" fill="rgba(34,211,238,0.500)"/><circle cx="851.0" cy="341.0" r="2.2" fill="rgba(34,211,238,0.557)"/><circle cx="851.0" cy="370.0" r="2.2" fill="rgba(34,211,238,0.592)"/><circle cx="851.0" cy="399.0" r="2.2" fill="rgba(34,211,238,0.599)"/><circle cx="851.0" cy="428.0" r="2.2" fill="rgba(34,211,238,0.579)"/><circle cx="851.0" cy="457.0" r="2.2" fill="rgba(34,211,238,0.534)"/><circle cx="851.0" cy="486.0" r="2.2" fill="rgba(34,211,238,0.470)"/><circle cx="851.0" cy="515.0" r="2.2" fill="rgba(34,211,238,0.396)"/><circle cx="851.0" cy="544.0" r="2.2" fill="rgba(34,211,238,0.322)"/><circle cx="851.0" cy="573.0" r="2.2" fill="rgba(34,211,238,0.260)"/><circle cx="851.0" cy="602.0" r="2.2" fill="rgba(34,211,238,0.217)"/><circle cx="880.0" cy="254.0" r="2.2" fill="rgba(34,211,238,0.458)"/><circle cx="880.0" cy="283.0" r="2.2" fill="rgba(34,211,238,0.524)"/><circle cx="880.0" cy="312.0" r="2.2" fill="rgba(34,211,238,0.573)"/><circle cx="880.0" cy="341.0" r="2.2" fill="rgba(34,211,238,0.598)"/><circle cx="880.0" cy="370.0" r="2.2" fill="rgba(34,211,238,0.595)"/><circle cx="880.0" cy="399.0" r="2.2" fill="rgba(34,211,238,0.564)"/><circle cx="880.0" cy="428.0" r="2.2" fill="rgba(34,211,238,0.511)"/><circle cx="880.0" cy="457.0" r="2.2" fill="rgba(34,211,238,0.442)"/><circle cx="880.0" cy="486.0" r="2.2" fill="rgba(34,211,238,0.367)"/><circle cx="880.0" cy="515.0" r="2.2" fill="rgba(34,211,238,0.297)"/><circle cx="880.0" cy="544.0" r="2.2" fill="rgba(34,211,238,0.241)"/><circle cx="880.0" cy="573.0" r="2.2" fill="rgba(34,211,238,0.207)"/><circle cx="880.0" cy="602.0" r="2.2" fill="rgba(34,211,238,0.201)"/><circle cx="909.0" cy="254.0" r="2.2" fill="rgba(34,211,238,0.545)"/><circle cx="909.0" cy="283.0" r="2.2" fill="rgba(34,211,238,0.586)"/><circle cx="909.0" cy="312.0" r="2.2" fill="rgba(34,211,238,0.600)"/><circle cx="909.0" cy="341.0" r="2.2" fill="rgba(34,211,238,0.586)"/><circle cx="909.0" cy="370.0" r="2.2" fill="rgba(34,211,238,0.546)"/><circle cx="909.0" cy="399.0" r="2.2" fill="rgba(34,211,238,0.486)"/><circle cx="909.0" cy="428.0" r="2.2" fill="rgba(34,211,238,0.413)"/><circle cx="909.0" cy="457.0" r="2.2" fill="rgba(34,211,238,0.339)"/><circle cx="909.0" cy="486.0" r="2.2" fill="rgba(34,211,238,0.273)"/><circle cx="909.0" cy="515.0" r="2.2" fill="rgba(34,211,238,0.225)"/><circle cx="909.0" cy="544.0" r="2.2" fill="rgba(34,211,238,0.202)"/><circle cx="909.0" cy="573.0" r="2.2" fill="rgba(34,211,238,0.206)"/><circle cx="909.0" cy="602.0" r="2.2" fill="rgba(34,211,238,0.238)"/><circle cx="938.0" cy="254.0" r="2.2" fill="rgba(34,211,238,0.595)"/><circle cx="938.0" cy="283.0" r="2.2" fill="rgba(34,211,238,0.598)"/><circle cx="938.0" cy="312.0" r="2.2" fill="rgba(34,211,238,0.574)"/><circle cx="938.0" cy="341.0" r="2.2" fill="rgba(34,211,238,0.525)"/><circle cx="938.0" cy="370.0" r="2.2" fill="rgba(34,211,238,0.459)"/><circle cx="938.0" cy="399.0" r="2.2" fill="rgba(34,211,238,0.384)"/><circle cx="938.0" cy="428.0" r="2.2" fill="rgba(34,211,238,0.312)"/><circle cx="938.0" cy="457.0" r="2.2" fill="rgba(34,211,238,0.252)"/><circle cx="938.0" cy="486.0" r="2.2" fill="rgba(34,211,238,0.213)"/><circle cx="938.0" cy="515.0" r="2.2" fill="rgba(34,211,238,0.200)"/><circle cx="938.0" cy="544.0" r="2.2" fill="rgba(34,211,238,0.215)"/><circle cx="938.0" cy="573.0" r="2.2" fill="rgba(34,211,238,0.257)"/><circle cx="938.0" cy="602.0" r="2.2" fill="rgba(34,211,238,0.318)"/><circle cx="967.0" cy="254.0" r="2.2" fill="rgba(34,211,238,0.592)"/><circle cx="967.0" cy="283.0" r="2.2" fill="rgba(34,211,238,0.557)"/><circle cx="967.0" cy="312.0" r="2.2" fill="rgba(34,211,238,0.501)"/><circle cx="967.0" cy="341.0" r="2.2" fill="rgba(34,211,238,0.430)"/><circle cx="967.0" cy="370.0" r="2.2" fill="rgba(34,211,238,0.355)"/><circle cx="967.0" cy="399.0" r="2.2" fill="rgba(34,211,238,0.287)"/><circle cx="967.0" cy="428.0" r="2.2" fill="rgba(34,211,238,0.234)"/><circle cx="967.0" cy="457.0" r="2.2" fill="rgba(34,211,238,0.205)"/><circle cx="967.0" cy="486.0" r="2.2" fill="rgba(34,211,238,0.203)"/><circle cx="967.0" cy="515.0" r="2.2" fill="rgba(34,211,238,0.228)"/><circle cx="967.0" cy="544.0" r="2.2" fill="rgba(34,211,238,0.278)"/><circle cx="967.0" cy="573.0" r="2.2" fill="rgba(34,211,238,0.345)"/><circle cx="967.0" cy="602.0" r="2.2" fill="rgba(34,211,238,0.420)"/><circle cx="996.0" cy="254.0" r="2.2" fill="rgba(34,211,238,0.538)"/><circle cx="996.0" cy="283.0" r="2.2" fill="rgba(34,211,238,0.475)"/><circle cx="996.0" cy="312.0" r="2.2" fill="rgba(34,211,238,0.401)"/><circle cx="996.0" cy="341.0" r="2.2" fill="rgba(34,211,238,0.328)"/><circle cx="996.0" cy="370.0" r="2.2" fill="rgba(34,211,238,0.264)"/><circle cx="996.0" cy="399.0" r="2.2" fill="rgba(34,211,238,0.220)"/><circle cx="996.0" cy="428.0" r="2.2" fill="rgba(34,211,238,0.200)"/><circle cx="996.0" cy="457.0" r="2.2" fill="rgba(34,211,238,0.209)"/><circle cx="996.0" cy="486.0" r="2.2" fill="rgba(34,211,238,0.245)"/><circle cx="996.0" cy="515.0" r="2.2" fill="rgba(34,211,238,0.302)"/><circle cx="996.0" cy="544.0" r="2.2" fill="rgba(34,211,238,0.374)"/><circle cx="996.0" cy="573.0" r="2.2" fill="rgba(34,211,238,0.448)"/><circle cx="996.0" cy="602.0" r="2.2" fill="rgba(34,211,238,0.516)"/>
  </g>
  <rect x="450" y="780" width="300" height="56" rx="14" fill="rgba(2,6,23,0.75)" stroke="rgba(34,211,238,0.35)"/>
  <text x="600" y="815" text-anchor="middle" fill="#a5f3fc" font-size="22" font-family="Inter,Arial,sans-serif">1/4S • 3840Hz</text>
</svg>