<svg width="1200" height="800" viewBox="0 0 1200 800" fill="none" xmlns="http://www.w3.org/2000/svg">
<defs><linearGradient id="g" x1="0" y1="0" x2="1200" y2="800"><stop stop-color="#0A1020"/><stop offset="1" stop-color="#111B34"/></linearGradient><radialGradient id="r" cx="0" cy="0" r="1" gradientUnits="userSpaceOnUse" gradientTransform="translate(700 360) rotate(90) scale(300 440)"><stop stop-color="#F472B6" stop-opacity="0.55"/><stop offset="1" stop-color="#F472B6" stop-opacity="0"/></radialGradient><linearGradient id="l" x1="200" y1="110" x2="1000" y2="690"><stop stop-color="#F472B6"/><stop offset="1" stop-color="#BE185D"/></linearGradient></defs>
<rect width="1200" height="800" rx="28" fill="url(#g)"/>
<rect x="180" y="110" width="840" height="580" rx="20" fill="#050914" stroke="url(#l)" stroke-opacity="0.65"/>
<rect x="180" y="110" width="840" height="580" rx="20" fill="url(#r)"/>
<g opacity="0.35"><path d="M220 160H980" stroke="#F472B6"/><path d="M220 212H980" stroke="#F472B6"/><path d="M220 264H980" stroke="#F472B6"/><path d="M220 316H980" stroke="#F472B6"/><path d="M220 368H980" stroke="#F472B6"/><path d="M220 420H980" stroke="#F472B6"/><path d="M220 472H980" stroke="#F472B6"/><path d="M220 524H980" stroke="#F472B6"/><path d="M220 576H980" stroke="#F472B6"/><path d="M220 628H980" stroke="#F472B6"/></g><g opacity="0.8"><circle cx="340" cy="260" r="6" fill="#F472B6"/><circle cx="470" cy="330" r="7" fill="#BE185D"/><circle cx="620" cy="250" r="8" fill="#F472B6"/><circle cx="760" cy="380" r="6" fill="#BE185D"/><circle cx="880" cy="470" r="7" fill="#F472B6"/><circle cx="530" cy="500" r="8" fill="#BE185D"/></g></svg>