<svg xmlns="http://www.w3.org/2000/svg" viewBox="0 0 940 220" role="img" aria-labelledby="logoTitle logoDesc">
  <title id="logoTitle">Sapphire logo</title>
  <desc id="logoDesc">Rainbow diamond with dragon mark and Sapphire wordmark.</desc>
  <defs>
    <linearGradient id="rainbow" x1="120" y1="86" x2="364" y2="86" gradientUnits="userSpaceOnUse">
      <stop offset="0" stop-color="#ff3b19"/>
      <stop offset="0.33" stop-color="#ff9f00"/>
      <stop offset="0.64" stop-color="#48c95f"/>
      <stop offset="1" stop-color="#0f6de7"/>
    </linearGradient>
    <linearGradient id="gold" x1="430" y1="150" x2="900" y2="150" gradientUnits="userSpaceOnUse">
      <stop offset="0" stop-color="#d9c98f"/>
      <stop offset="1" stop-color="#c8b77d"/>
    </linearGradient>
    <linearGradient id="gemCenter" x1="220" y1="84" x2="260" y2="140" gradientUnits="userSpaceOnUse">
      <stop offset="0" stop-color="#58cd64"/>
      <stop offset="1" stop-color="#27a2de"/>
    </linearGradient>
  </defs>

  <g transform="translate(36 24)">
    <path d="M84 88 152 28 224 8l72 20 72-20 72 20 68 60-124-22-88 48-88-48z" fill="none" stroke="url(#rainbow)" stroke-width="16" stroke-linejoin="round"/>
    <path d="M224 8h144l-72 20z" fill="url(#gemCenter)"/>
    <path d="m224 8 72 20 72-20z" fill="#3ab8ab" opacity=".65"/>
    <path d="m264 150 32 26 32-26z" fill="url(#gemCenter)"/>

    <g transform="translate(264 70)" fill="#cfc190" stroke="#111" stroke-width="2">
      <path d="M0 44c18-36 56-38 88-30 16 4 30 16 26 30-4 16-24 24-40 28-27 8-67 2-74-28Z"/>
      <circle cx="50" cy="44" r="8" fill="#1968e8" stroke="none"/>
      <path d="M20 38c10-8 22-10 34-10M18 54c8 2 18 4 30 2M58 62c12 6 24 10 36 8" fill="none" stroke="#111" stroke-linecap="round"/>
    </g>
  </g>

  <g transform="translate(430 34)">
    <text x="0" y="40" font-family="'Segoe UI', Arial, sans-serif" font-size="34" font-style="italic" font-weight="700" letter-spacing="10">
      <tspan fill="#ff4222">L</tspan><tspan fill="#69d23f">E</tspan><tspan fill="#227de4">D</tspan><tspan fill="#d8cb98" dx="18">it be</tspan>
    </text>
    <text x="0" y="134" font-family="'Segoe UI', Arial, sans-serif" font-size="90" font-style="italic" font-weight="800" fill="url(#gold)">SAPPHIRE</text>
    <rect x="301" y="72" width="17" height="63" rx="4" fill="#1d74ec" transform="skewX(-10)"/>
    <text x="12" y="194" font-family="'Segoe UI', Arial, sans-serif" font-size="72" font-weight="700" fill="#d4c58f" letter-spacing="34">蓝 宝 石</text>
  </g>
</svg>
