<svg width="1600" height="900" viewBox="0 0 1600 900" fill="none" xmlns="http://www.w3.org/2000/svg">
<defs>
  <linearGradient id="bg10" x1="0" y1="0" x2="1600" y2="900" gradientUnits="userSpaceOnUse">
    <stop stop-color="#061021"/>
    <stop offset="1" stop-color="#020617"/>
  </linearGradient>
  <radialGradient id="glowA10" cx="0" cy="0" r="1" gradientUnits="userSpaceOnUse" gradientTransform="translate(1100 550) rotate(20) scale(460 300)">
    <stop stop-color="#0ea5e9" stop-opacity="0.42"/>
    <stop offset="1" stop-color="#0ea5e9" stop-opacity="0"/>
  </radialGradient>
  <radialGradient id="glowB10" cx="0" cy="0" r="1" gradientUnits="userSpaceOnUse" gradientTransform="translate(700 450) rotate(-15) scale(500 330)">
    <stop stop-color="#7dd3fc" stop-opacity="0.35"/>
    <stop offset="1" stop-color="#7dd3fc" stop-opacity="0"/>
  </radialGradient>
  <pattern id="grid10" width="64" height="64" patternUnits="userSpaceOnUse">
    <path d="M64 0H0V64" stroke="#38bdf8" stroke-opacity="0.08"/>
  </pattern>
</defs>
<rect width="1600" height="900" fill="url(#bg10)"/>
<rect width="1600" height="900" fill="url(#grid10)"/>
<rect width="1600" height="900" fill="url(#glowA10)"/>
<rect width="1600" height="900" fill="url(#glowB10)"/>
<g opacity="0.45">
  <path d="M0 600C260 570 420 760 760 600C1040 540 1300 730 1600 560" stroke="#38bdf8" stroke-opacity="0.45" stroke-width="2"/>
  <path d="M0 750C320 640 560 880 920 760C1180 620 1400 780 1600 620" stroke="#22d3ee" stroke-opacity="0.4" stroke-width="2"/>
</g>
<g opacity="0.3">
  <circle cx="1180" cy="570" r="2.5" fill="#67e8f9"/>
  <circle cx="580" cy="500" r="2" fill="#93c5fd"/>
  <circle cx="910" cy="480" r="2.2" fill="#67e8f9"/>
  <circle cx="1030" cy="400" r="2" fill="#38bdf8"/>
</g>
</svg>