<svg width="1600" height="900" viewBox="0 0 1600 900" fill="none" xmlns="http://www.w3.org/2000/svg">
<defs>
  <linearGradient id="bg6" x1="0" y1="0" x2="1600" y2="900" gradientUnits="userSpaceOnUse">
    <stop stop-color="#060f1f"/>
    <stop offset="1" stop-color="#020617"/>
  </linearGradient>
  <radialGradient id="glowA6" cx="0" cy="0" r="1" gradientUnits="userSpaceOnUse" gradientTransform="translate(740 390) rotate(20) scale(460 300)">
    <stop stop-color="#06b6d4" stop-opacity="0.42"/>
    <stop offset="1" stop-color="#06b6d4" stop-opacity="0"/>
  </radialGradient>
  <radialGradient id="glowB6" cx="0" cy="0" r="1" gradientUnits="userSpaceOnUse" gradientTransform="translate(920 530) rotate(-15) scale(500 330)">
    <stop stop-color="#5eead4" stop-opacity="0.35"/>
    <stop offset="1" stop-color="#5eead4" stop-opacity="0"/>
  </radialGradient>
  <pattern id="grid6" width="64" height="64" patternUnits="userSpaceOnUse">
    <path d="M64 0H0V64" stroke="#38bdf8" stroke-opacity="0.08"/>
  </pattern>
</defs>
<rect width="1600" height="900" fill="url(#bg6)"/>
<rect width="1600" height="900" fill="url(#grid6)"/>
<rect width="1600" height="900" fill="url(#glowA6)"/>
<rect width="1600" height="900" fill="url(#glowB6)"/>
<g opacity="0.45">
  <path d="M0 672C260 602 420 800 760 648C1040 564 1300 754 1600 592" stroke="#38bdf8" stroke-opacity="0.45" stroke-width="2"/>
  <path d="M0 726C320 600 560 832 920 704C1180 580 1400 748 1600 596" stroke="#22d3ee" stroke-opacity="0.4" stroke-width="2"/>
</g>
<g opacity="0.3">
  <circle cx="820" cy="430" r="2.5" fill="#67e8f9"/>
  <circle cx="652" cy="420" r="2" fill="#93c5fd"/>
  <circle cx="1010" cy="360" r="2.2" fill="#67e8f9"/>
  <circle cx="1170" cy="440" r="2" fill="#38bdf8"/>
</g>
</svg>