<svg width="1600" height="900" viewBox="0 0 1600 900" fill="none" xmlns="http://www.w3.org/2000/svg">
<defs>
  <linearGradient id="bg7" x1="0" y1="0" x2="1600" y2="900" gradientUnits="userSpaceOnUse">
    <stop stop-color="#081226"/>
    <stop offset="1" stop-color="#020617"/>
  </linearGradient>
  <radialGradient id="glowA7" cx="0" cy="0" r="1" gradientUnits="userSpaceOnUse" gradientTransform="translate(830 430) rotate(20) scale(460 300)">
    <stop stop-color="#22d3ee" stop-opacity="0.42"/>
    <stop offset="1" stop-color="#22d3ee" stop-opacity="0"/>
  </radialGradient>
  <radialGradient id="glowB7" cx="0" cy="0" r="1" gradientUnits="userSpaceOnUse" gradientTransform="translate(865 510) rotate(-15) scale(500 330)">
    <stop stop-color="#67e8f9" stop-opacity="0.35"/>
    <stop offset="1" stop-color="#67e8f9" stop-opacity="0"/>
  </radialGradient>
  <pattern id="grid7" width="64" height="64" patternUnits="userSpaceOnUse">
    <path d="M64 0H0V64" stroke="#38bdf8" stroke-opacity="0.08"/>
  </pattern>
</defs>
<rect width="1600" height="900" fill="url(#bg7)"/>
<rect width="1600" height="900" fill="url(#grid7)"/>
<rect width="1600" height="900" fill="url(#glowA7)"/>
<rect width="1600" height="900" fill="url(#glowB7)"/>
<g opacity="0.45">
  <path d="M0 654C260 594 420 790 760 636C1040 558 1300 748 1600 584" stroke="#38bdf8" stroke-opacity="0.45" stroke-width="2"/>
  <path d="M0 732C320 610 560 844 920 718C1180 590 1400 756 1600 602" stroke="#22d3ee" stroke-opacity="0.4" stroke-width="2"/>
</g>
<g opacity="0.3">
  <circle cx="910" cy="465" r="2.5" fill="#67e8f9"/>
  <circle cx="634" cy="440" r="2" fill="#93c5fd"/>
  <circle cx="985" cy="390" r="2.2" fill="#67e8f9"/>
  <circle cx="1135" cy="430" r="2" fill="#38bdf8"/>
</g>
</svg>