<svg width="800" height="500" viewBox="0 0 800 500" fill="none" xmlns="http://www.w3.org/2000/svg">
  <rect width="800" height="500" rx="24" fill="#060B1A"/>
  <defs>
    <linearGradient id="g1" x1="0" y1="0" x2="800" y2="500" gradientUnits="userSpaceOnUse">
      <stop stop-color="#22D3EE" stop-opacity="0.45"/>
      <stop offset="1" stop-color="#2563EB" stop-opacity="0.12"/>
    </linearGradient>
  </defs>
  <rect x="40" y="40" width="720" height="420" rx="20" stroke="url(#g1)" stroke-width="2"/>
  <g opacity="0.75">
    <circle cx="120" cy="120" r="6" fill="#67E8F9"/>
    <circle cx="200" cy="120" r="6" fill="#67E8F9"/>
    <circle cx="280" cy="120" r="6" fill="#67E8F9"/>
    <circle cx="360" cy="120" r="6" fill="#67E8F9"/>
    <circle cx="440" cy="120" r="6" fill="#67E8F9"/>
    <circle cx="520" cy="120" r="6" fill="#67E8F9"/>
    <circle cx="600" cy="120" r="6" fill="#67E8F9"/>
    <circle cx="680" cy="120" r="6" fill="#67E8F9"/>
    <circle cx="120" cy="200" r="6" fill="#38BDF8"/>
    <circle cx="200" cy="200" r="6" fill="#38BDF8"/>
    <circle cx="280" cy="200" r="6" fill="#38BDF8"/>
    <circle cx="360" cy="200" r="6" fill="#38BDF8"/>
    <circle cx="440" cy="200" r="6" fill="#38BDF8"/>
    <circle cx="520" cy="200" r="6" fill="#38BDF8"/>
    <circle cx="600" cy="200" r="6" fill="#38BDF8"/>
    <circle cx="680" cy="200" r="6" fill="#38BDF8"/>
    <circle cx="120" cy="280" r="6" fill="#22D3EE"/>
    <circle cx="200" cy="280" r="6" fill="#22D3EE"/>
    <circle cx="280" cy="280" r="6" fill="#22D3EE"/>
    <circle cx="360" cy="280" r="6" fill="#22D3EE"/>
    <circle cx="440" cy="280" r="6" fill="#22D3EE"/>
    <circle cx="520" cy="280" r="6" fill="#22D3EE"/>
    <circle cx="600" cy="280" r="6" fill="#22D3EE"/>
    <circle cx="680" cy="280" r="6" fill="#22D3EE"/>
    <circle cx="120" cy="360" r="6" fill="#38BDF8"/>
    <circle cx="200" cy="360" r="6" fill="#38BDF8"/>
    <circle cx="280" cy="360" r="6" fill="#38BDF8"/>
    <circle cx="360" cy="360" r="6" fill="#38BDF8"/>
    <circle cx="440" cy="360" r="6" fill="#38BDF8"/>
    <circle cx="520" cy="360" r="6" fill="#38BDF8"/>
    <circle cx="600" cy="360" r="6" fill="#38BDF8"/>
    <circle cx="680" cy="360" r="6" fill="#38BDF8"/>
  </g>
</svg>
